<mxfile host="app.diagrams.net" agent="Mozilla/5.0 (Macintosh; Intel Mac OS X 10_15_7) AppleWebKit/537.36 (KHTML, like Gecko) Chrome/132.0.0.0 Safari/537.36" version="26.0.16">
  <diagram name="第 1 页" id="0GaU1CNL8wtGXsv74cl8">
    <mxGraphModel dx="1010" dy="639" grid="1" gridSize="10" guides="1" tooltips="1" connect="1" arrows="1" fold="1" page="1" pageScale="1" pageWidth="827" pageHeight="1169" math="0" shadow="0">
      <root>
        <mxCell id="0" />
        <mxCell id="1" parent="0" />
        <mxCell id="S2T7hBQq3xJoKycN8-sa-3" value="" style="edgeStyle=orthogonalEdgeStyle;rounded=0;orthogonalLoop=1;jettySize=auto;html=1;" edge="1" parent="1" source="S2T7hBQq3xJoKycN8-sa-1" target="S2T7hBQq3xJoKycN8-sa-2">
          <mxGeometry relative="1" as="geometry" />
        </mxCell>
        <mxCell id="S2T7hBQq3xJoKycN8-sa-1" value="" style="whiteSpace=wrap;html=1;aspect=fixed;" vertex="1" parent="1">
          <mxGeometry x="370" y="210" width="80" height="80" as="geometry" />
        </mxCell>
        <mxCell id="S2T7hBQq3xJoKycN8-sa-5" value="" style="edgeStyle=orthogonalEdgeStyle;rounded=0;orthogonalLoop=1;jettySize=auto;html=1;" edge="1" parent="1" source="S2T7hBQq3xJoKycN8-sa-2" target="S2T7hBQq3xJoKycN8-sa-4">
          <mxGeometry relative="1" as="geometry" />
        </mxCell>
        <mxCell id="S2T7hBQq3xJoKycN8-sa-2" value="" style="whiteSpace=wrap;html=1;aspect=fixed;" vertex="1" parent="1">
          <mxGeometry x="530" y="210" width="80" height="80" as="geometry" />
        </mxCell>
        <mxCell id="S2T7hBQq3xJoKycN8-sa-4" value="" style="whiteSpace=wrap;html=1;aspect=fixed;" vertex="1" parent="1">
          <mxGeometry x="690" y="210" width="80" height="80" as="geometry" />
        </mxCell>
      </root>
    </mxGraphModel>
  </diagram>
</mxfile>
